<svg xmlns="http://www.w3.org/2000/svg" xmlns:xlink="http://www.w3.org/1999/xlink" width="350" zoomAndPan="magnify" viewBox="0 0 262.5 50.999998" height="68" preserveAspectRatio="xMidYMid meet" version="1.0"><defs><g/></defs><g fill="#ffffff" fill-opacity="1"><g transform="translate(0.43944, 36.315949)"><g><path d="M 9.96875 -11.53125 L 9.96875 0 L 2.609375 0 L 2.609375 -28.84375 L 9.96875 -28.84375 L 9.96875 -18 L 19.40625 -18 L 19.40625 -28.84375 L 26.765625 -28.84375 L 26.765625 0 L 19.40625 0 L 19.40625 -11.53125 Z M 9.96875 -11.53125 "/></g></g></g><g fill="#ffffff" fill-opacity="1"><g transform="translate(29.044971, 36.315949)"><g><path d="M 8.8125 -28.84375 L 8.8125 -23.921875 L 2.34375 -23.921875 L 2.34375 -28.84375 Z M 8.8125 -21.625 L 8.8125 0 L 2.34375 0 L 2.34375 -21.625 Z M 8.8125 -21.625 "/></g></g></g><g fill="#ffffff" fill-opacity="1"><g transform="translate(39.411515, 36.315949)"><g><path d="M 8.8125 -28.84375 L 8.8125 0 L 2.34375 0 L 2.34375 -28.84375 Z M 8.8125 -28.84375 "/></g></g></g><g fill="#ffffff" fill-opacity="1"><g transform="translate(49.778058, 36.315949)"><g><path d="M 18.625 -2.34375 C 17.40625 -0.3125 15.25 0.703125 12.15625 0.703125 C 10.03125 0.703125 8.140625 0.195312 6.484375 -0.8125 C 4.835938 -1.832031 3.566406 -3.21875 2.671875 -4.96875 C 1.773438 -6.71875 1.328125 -8.6875 1.328125 -10.875 C 1.328125 -13 1.78125 -14.9375 2.6875 -16.6875 C 3.59375 -18.445312 4.863281 -19.832031 6.5 -20.84375 C 8.144531 -21.863281 9.992188 -22.375 12.046875 -22.375 C 13.316406 -22.375 14.460938 -22.171875 15.484375 -21.765625 C 16.515625 -21.359375 17.484375 -20.703125 18.390625 -19.796875 L 18.390625 -28.84375 L 24.859375 -28.84375 L 24.859375 0 L 18.703125 0 L 18.703125 -2.34375 Z M 18.75 -10.90625 C 18.75 -11.894531 18.515625 -12.804688 18.046875 -13.640625 C 17.578125 -14.472656 16.921875 -15.128906 16.078125 -15.609375 C 15.234375 -16.085938 14.289062 -16.328125 13.25 -16.328125 C 11.71875 -16.328125 10.425781 -15.8125 9.375 -14.78125 C 8.320312 -13.757812 7.796875 -12.46875 7.796875 -10.90625 C 7.796875 -9.269531 8.304688 -7.929688 9.328125 -6.890625 C 10.359375 -5.859375 11.648438 -5.34375 13.203125 -5.34375 C 14.796875 -5.34375 16.117188 -5.875 17.171875 -6.9375 C 18.222656 -8 18.75 -9.320312 18.75 -10.90625 Z M 18.75 -10.90625 "/></g></g></g><g fill="#ffffff" fill-opacity="1"><g transform="translate(76.201139, 36.315949)"><g><path d="M 18.515625 -2.34375 C 18.046875 -1.40625 17.222656 -0.65625 16.046875 -0.09375 C 14.878906 0.457031 13.582031 0.734375 12.15625 0.734375 C 10.082031 0.734375 8.21875 0.226562 6.5625 -0.78125 C 4.914062 -1.789062 3.628906 -3.175781 2.703125 -4.9375 C 1.785156 -6.707031 1.328125 -8.671875 1.328125 -10.828125 C 1.328125 -12.929688 1.800781 -14.867188 2.75 -16.640625 C 3.695312 -18.410156 4.992188 -19.804688 6.640625 -20.828125 C 8.296875 -21.859375 10.132812 -22.375 12.15625 -22.375 C 13.507812 -22.375 14.753906 -22.101562 15.890625 -21.5625 C 17.035156 -21.03125 17.910156 -20.285156 18.515625 -19.328125 L 18.59375 -19.328125 L 18.59375 -21.625 L 25.0625 -21.625 L 25.0625 0 L 18.59375 0 L 18.59375 -2.34375 Z M 18.59375 -10.828125 C 18.59375 -11.816406 18.34375 -12.734375 17.84375 -13.578125 C 17.351562 -14.421875 16.6875 -15.085938 15.84375 -15.578125 C 15 -16.078125 14.082031 -16.328125 13.09375 -16.328125 C 12.132812 -16.328125 11.242188 -16.078125 10.421875 -15.578125 C 9.609375 -15.085938 8.96875 -14.414062 8.5 -13.5625 C 8.03125 -12.707031 7.796875 -11.769531 7.796875 -10.75 C 7.796875 -9.769531 8.035156 -8.863281 8.515625 -8.03125 C 8.992188 -7.195312 9.640625 -6.53125 10.453125 -6.03125 C 11.273438 -5.539062 12.179688 -5.296875 13.171875 -5.296875 C 14.160156 -5.296875 15.066406 -5.539062 15.890625 -6.03125 C 16.722656 -6.53125 17.378906 -7.203125 17.859375 -8.046875 C 18.347656 -8.890625 18.59375 -9.816406 18.59375 -10.828125 Z M 18.59375 -10.828125 "/></g></g></g><g fill="#ffffff" fill-opacity="1"><g transform="translate(102.858057, 36.315949)"><g><path d="M 12.515625 -16.28125 C 11.210938 -16.28125 10.269531 -15.921875 9.6875 -15.203125 C 9.101562 -14.492188 8.8125 -13.398438 8.8125 -11.921875 L 8.8125 0 L 2.34375 0 L 2.34375 -21.625 L 8.375 -21.625 L 8.375 -19.328125 L 8.453125 -19.328125 C 9.128906 -20.421875 9.941406 -21.203125 10.890625 -21.671875 C 11.835938 -22.140625 12.988281 -22.375 14.34375 -22.375 C 15.738281 -22.375 17.039062 -22.085938 18.25 -21.515625 C 19.457031 -20.941406 20.445312 -20.015625 21.21875 -18.734375 C 21.988281 -17.460938 22.375 -15.816406 22.375 -13.796875 L 22.375 0 L 15.90625 0 L 15.90625 -12 C 15.90625 -13.476562 15.628906 -14.5625 15.078125 -15.25 C 14.535156 -15.9375 13.679688 -16.28125 12.515625 -16.28125 Z M 12.515625 -16.28125 "/></g></g></g><g fill="#ffffff" fill-opacity="1"><g transform="translate(126.708971, 36.315949)"><g/></g></g><g fill="#ffffff" fill-opacity="1"><g transform="translate(137.972641, 36.315949)"><g><path d="M 18.4375 -3.3125 C 17.832031 -2.09375 16.9375 -1.148438 15.75 -0.484375 C 14.570312 0.171875 13.207031 0.5 11.65625 0.5 C 10.019531 0.5 8.503906 0.179688 7.109375 -0.453125 C 5.722656 -1.085938 4.59375 -2.117188 3.71875 -3.546875 C 2.851562 -4.972656 2.421875 -6.832031 2.421875 -9.125 L 2.421875 -21.3125 L 5.140625 -21.3125 L 5.140625 -9.4375 C 5.140625 -4.445312 7.3125 -1.953125 11.65625 -1.953125 C 12.894531 -1.953125 14.019531 -2.242188 15.03125 -2.828125 C 16.050781 -3.410156 16.859375 -4.28125 17.453125 -5.4375 C 18.054688 -6.59375 18.359375 -7.988281 18.359375 -9.625 L 18.359375 -21.3125 L 21.078125 -21.3125 L 21.078125 0 L 18.515625 0 L 18.515625 -3.3125 Z M 18.4375 -3.3125 "/></g></g></g><g fill="#ffffff" fill-opacity="1"><g transform="translate(160.888235, 36.315949)"><g><path d="M 0.546875 -18.859375 L 0.546875 -21.3125 L 5.03125 -21.3125 L 5.03125 -28.84375 L 7.75 -28.84375 L 7.75 -21.3125 L 12.859375 -21.3125 L 12.859375 -18.859375 L 7.75 -18.859375 L 7.75 0 L 5.03125 0 L 5.03125 -18.859375 Z M 0.546875 -18.859375 "/></g></g></g><g fill="#ffffff" fill-opacity="1"><g transform="translate(173.320307, 36.315949)"><g><path d="M 21.390625 -3.734375 C 20.503906 -2.410156 19.332031 -1.375 17.875 -0.625 C 16.425781 0.125 14.832031 0.5 13.09375 0.5 C 10.988281 0.5 9.054688 0.0078125 7.296875 -0.96875 C 5.546875 -1.957031 4.164062 -3.300781 3.15625 -5 C 2.144531 -6.707031 1.640625 -8.613281 1.640625 -10.71875 C 1.640625 -12.789062 2.15625 -14.675781 3.1875 -16.375 C 4.226562 -18.082031 5.625 -19.421875 7.375 -20.390625 C 9.132812 -21.367188 11.039062 -21.859375 13.09375 -21.859375 C 14.863281 -21.859375 16.472656 -21.476562 17.921875 -20.71875 C 19.378906 -19.96875 20.535156 -18.921875 21.390625 -17.578125 L 21.46875 -17.578125 L 21.46875 -21.3125 L 24.203125 -21.3125 L 24.203125 0 L 21.46875 0 L 21.46875 -3.734375 Z M 21.625 -10.640625 C 21.625 -12.203125 21.25 -13.65625 20.5 -15 C 19.75 -16.351562 18.71875 -17.425781 17.40625 -18.21875 C 16.09375 -19.007812 14.640625 -19.40625 13.046875 -19.40625 C 11.441406 -19.40625 9.972656 -19.019531 8.640625 -18.25 C 7.316406 -17.488281 6.269531 -16.4375 5.5 -15.09375 C 4.738281 -13.757812 4.359375 -12.257812 4.359375 -10.59375 C 4.359375 -8.988281 4.734375 -7.519531 5.484375 -6.1875 C 6.242188 -4.863281 7.289062 -3.828125 8.625 -3.078125 C 9.96875 -2.328125 11.457031 -1.953125 13.09375 -1.953125 C 14.65625 -1.953125 16.082031 -2.335938 17.375 -3.109375 C 18.675781 -3.890625 19.707031 -4.941406 20.46875 -6.265625 C 21.238281 -7.597656 21.625 -9.054688 21.625 -10.640625 Z M 21.625 -10.640625 "/></g></g></g><g fill="#ffffff" fill-opacity="1"><g transform="translate(199.158806, 36.315949)"><g><path d="M 25.453125 -19.40625 C 23.609375 -19.40625 22.175781 -18.773438 21.15625 -17.515625 C 20.144531 -16.253906 19.640625 -14.5625 19.640625 -12.4375 L 19.640625 0 L 16.90625 0 L 16.90625 -12.46875 C 16.90625 -14.601562 16.398438 -16.289062 15.390625 -17.53125 C 14.378906 -18.78125 12.953125 -19.40625 11.109375 -19.40625 C 9.265625 -19.40625 7.832031 -18.78125 6.8125 -17.53125 C 5.800781 -16.289062 5.296875 -14.601562 5.296875 -12.46875 L 5.296875 0 L 2.578125 0 L 2.578125 -21.3125 L 5.296875 -21.3125 L 5.296875 -18.859375 C 5.921875 -19.847656 6.742188 -20.59375 7.765625 -21.09375 C 8.796875 -21.601562 9.910156 -21.859375 11.109375 -21.859375 C 12.640625 -21.859375 14.023438 -21.503906 15.265625 -20.796875 C 16.515625 -20.097656 17.519531 -19.085938 18.28125 -17.765625 C 20.019531 -20.492188 22.410156 -21.859375 25.453125 -21.859375 C 27.210938 -21.859375 28.734375 -21.457031 30.015625 -20.65625 C 31.304688 -19.851562 32.289062 -18.757812 32.96875 -17.375 C 33.644531 -16 33.984375 -14.46875 33.984375 -12.78125 L 33.984375 0 L 31.25 0 L 31.25 -12.515625 C 31.25 -14.617188 30.75 -16.289062 29.75 -17.53125 C 28.75 -18.78125 27.316406 -19.40625 25.453125 -19.40625 Z M 25.453125 -19.40625 "/></g></g></g><g fill="#ffffff" fill-opacity="1"><g transform="translate(234.935218, 36.315949)"><g><path d="M 21.390625 -3.734375 C 20.503906 -2.410156 19.332031 -1.375 17.875 -0.625 C 16.425781 0.125 14.832031 0.5 13.09375 0.5 C 10.988281 0.5 9.054688 0.0078125 7.296875 -0.96875 C 5.546875 -1.957031 4.164062 -3.300781 3.15625 -5 C 2.144531 -6.707031 1.640625 -8.613281 1.640625 -10.71875 C 1.640625 -12.789062 2.15625 -14.675781 3.1875 -16.375 C 4.226562 -18.082031 5.625 -19.421875 7.375 -20.390625 C 9.132812 -21.367188 11.039062 -21.859375 13.09375 -21.859375 C 14.863281 -21.859375 16.472656 -21.476562 17.921875 -20.71875 C 19.378906 -19.96875 20.535156 -18.921875 21.390625 -17.578125 L 21.46875 -17.578125 L 21.46875 -21.3125 L 24.203125 -21.3125 L 24.203125 0 L 21.46875 0 L 21.46875 -3.734375 Z M 21.625 -10.640625 C 21.625 -12.203125 21.25 -13.65625 20.5 -15 C 19.75 -16.351562 18.71875 -17.425781 17.40625 -18.21875 C 16.09375 -19.007812 14.640625 -19.40625 13.046875 -19.40625 C 11.441406 -19.40625 9.972656 -19.019531 8.640625 -18.25 C 7.316406 -17.488281 6.269531 -16.4375 5.5 -15.09375 C 4.738281 -13.757812 4.359375 -12.257812 4.359375 -10.59375 C 4.359375 -8.988281 4.734375 -7.519531 5.484375 -6.1875 C 6.242188 -4.863281 7.289062 -3.828125 8.625 -3.078125 C 9.96875 -2.328125 11.457031 -1.953125 13.09375 -1.953125 C 14.65625 -1.953125 16.082031 -2.335938 17.375 -3.109375 C 18.675781 -3.890625 19.707031 -4.941406 20.46875 -6.265625 C 21.238281 -7.597656 21.625 -9.054688 21.625 -10.640625 Z M 21.625 -10.640625 "/></g></g></g></svg>